<?xml version="1.0" encoding="UTF-8"?><svg xmlns="http://www.w3.org/2000/svg" xmlns:xlink="http://www.w3.org/1999/xlink" fill-opacity="1" color-rendering="auto" color-interpolation="auto" text-rendering="auto" stroke="black" stroke-linecap="square" width="1366" stroke-miterlimit="10" shape-rendering="auto" stroke-opacity="1" fill="black" stroke-dasharray="none" font-weight="normal" stroke-width="1" height="741" font-family="'Dialog'" font-style="normal" stroke-linejoin="miter" font-size="12px" stroke-dashoffset="0" image-rendering="auto">
  <!--Generated by ySVG 2.5-->
  <defs id="genericDefs"/>
  <g>
    <defs id="defs1">
      <clipPath clipPathUnits="userSpaceOnUse" id="clipPath1">
        <path d="M0 0 L1366 0 L1366 741 L0 741 L0 0 Z"/>
      </clipPath>
      <clipPath clipPathUnits="userSpaceOnUse" id="clipPath2">
        <path d="M352 -136 L1718 -136 L1718 605 L352 605 L352 -136 Z"/>
      </clipPath>
    </defs>
    <g fill="white" text-rendering="geometricPrecision" shape-rendering="geometricPrecision" transform="translate(-352,136)" stroke="white">
      <rect x="352" width="1366" height="741" y="-136" clip-path="url(#clipPath2)" stroke="none"/>
    </g>
    <g stroke-linecap="butt" transform="matrix(1,0,0,1,-352,136)" text-rendering="geometricPrecision" shape-rendering="geometricPrecision" stroke-dasharray="24,8" stroke-width="4" stroke-miterlimit="1.45">
      <rect x="427.856" y="175.2057" clip-path="url(#clipPath2)" fill="none" width="711" rx="4" ry="4" height="414.75"/>
    </g>
    <g font-size="20px" stroke-linecap="butt" transform="matrix(1,0,0,1,-352,136)" text-rendering="geometricPrecision" font-family="sans-serif" shape-rendering="geometricPrecision" font-weight="bold" stroke-miterlimit="1.45">
      <text x="715.0308" xml:space="preserve" y="201.3131" clip-path="url(#clipPath2)" stroke="none">Autoreduction</text>
    </g>
    <g text-rendering="geometricPrecision" stroke-miterlimit="1.45" stroke-dasharray="6,2" shape-rendering="geometricPrecision" transform="matrix(1,0,0,1,-352,136)" stroke-linecap="butt">
      <rect x="1538.7877" y="175.2057" clip-path="url(#clipPath2)" fill="none" width="163.8" rx="4" ry="4" height="275.038"/>
    </g>
    <g font-size="15px" stroke-linecap="butt" transform="matrix(1,0,0,1,-352,136)" text-rendering="geometricPrecision" font-family="sans-serif" shape-rendering="geometricPrecision" font-weight="bold" stroke-miterlimit="1.45">
      <text x="1600.2604" xml:space="preserve" y="196.2862" clip-path="url(#clipPath2)" stroke="none">Beam</text>
    </g>
    <g text-rendering="geometricPrecision" stroke-miterlimit="1.45" stroke-dasharray="6,2" shape-rendering="geometricPrecision" transform="matrix(1,0,0,1,-352,136)" stroke-linecap="butt">
      <rect x="1281.8397" y="175.2057" clip-path="url(#clipPath2)" fill="none" width="199.8" rx="4" ry="4" height="414.75"/>
    </g>
    <g font-size="15px" stroke-linecap="butt" transform="matrix(1,0,0,1,-352,136)" text-rendering="geometricPrecision" font-family="sans-serif" shape-rendering="geometricPrecision" font-weight="bold" stroke-miterlimit="1.45">
      <text x="1318.3815" xml:space="preserve" y="196.2862" clip-path="url(#clipPath2)" stroke="none">Facility file stores</text>
    </g>
    <g transform="matrix(1,0,0,1,-352,136)" fill-opacity="0.0431" fill="rgb(0,0,0)" text-rendering="geometricPrecision" shape-rendering="geometricPrecision" stroke="rgb(0,0,0)" stroke-opacity="0.0431">
      <rect x="463.056" width="305.8" height="325.576" y="231.6677" clip-path="url(#clipPath2)" stroke="none"/>
    </g>
    <g text-rendering="geometricPrecision" stroke-miterlimit="1.45" shape-rendering="geometricPrecision" transform="matrix(1,0,0,1,-352,136)" stroke-linecap="butt">
      <rect fill="none" x="463.056" width="305.8" height="325.576" y="231.6677" clip-path="url(#clipPath2)"/>
      <text x="589.9609" y="249.7321" clip-path="url(#clipPath2)" font-family="sans-serif" stroke="none" font-weight="bold" xml:space="preserve">Frontend</text>
    </g>
    <g fill="rgb(255,204,0)" text-rendering="geometricPrecision" shape-rendering="geometricPrecision" transform="matrix(1,0,0,1,-352,136)" stroke="rgb(255,204,0)">
      <rect x="557.436" width="117.04" height="45.36" y="377.3173" clip-path="url(#clipPath2)" stroke="none"/>
    </g>
    <g text-rendering="geometricPrecision" stroke-miterlimit="1.45" shape-rendering="geometricPrecision" transform="matrix(1,0,0,1,-352,136)" stroke-linecap="butt">
      <rect fill="none" x="557.436" width="117.04" height="45.36" y="377.3173" clip-path="url(#clipPath2)"/>
      <text x="573.2587" xml:space="preserve" y="404.7112" clip-path="url(#clipPath2)" font-family="sans-serif" stroke="none">Message queue</text>
    </g>
    <g fill="rgb(255,204,0)" text-rendering="geometricPrecision" shape-rendering="geometricPrecision" transform="matrix(1,0,0,1,-352,136)" stroke="rgb(255,204,0)">
      <rect x="557.436" width="117.04" height="45.36" y="259.1397" clip-path="url(#clipPath2)" stroke="none"/>
    </g>
    <g text-rendering="geometricPrecision" stroke-miterlimit="1.45" shape-rendering="geometricPrecision" transform="matrix(1,0,0,1,-352,136)" stroke-linecap="butt">
      <rect fill="none" x="557.436" width="117.04" height="45.36" y="259.1397" clip-path="url(#clipPath2)"/>
      <text x="591.9413" xml:space="preserve" y="286.5335" clip-path="url(#clipPath2)" font-family="sans-serif" stroke="none">Web app</text>
    </g>
    <g transform="matrix(1,0,0,1,-352,136)" fill-opacity="0.0431" fill="rgb(0,0,0)" text-rendering="geometricPrecision" shape-rendering="geometricPrecision" stroke="rgb(0,0,0)" stroke-opacity="0.0431">
      <rect x="907.476" width="199.8" height="218.576" y="231.6677" clip-path="url(#clipPath2)" stroke="none"/>
    </g>
    <g text-rendering="geometricPrecision" stroke-miterlimit="1.45" shape-rendering="geometricPrecision" transform="matrix(1,0,0,1,-352,136)" stroke-linecap="butt">
      <rect fill="none" x="907.476" width="199.8" height="218.576" y="231.6677" clip-path="url(#clipPath2)"/>
      <text x="956.7012" y="249.7321" clip-path="url(#clipPath2)" font-family="sans-serif" stroke="none" font-weight="bold" xml:space="preserve">Reduction worker</text>
    </g>
    <g fill="rgb(255,204,0)" text-rendering="geometricPrecision" shape-rendering="geometricPrecision" transform="matrix(1,0,0,1,-352,136)" stroke="rgb(255,204,0)">
      <rect x="948.856" width="117.04" height="46.668" y="259.1397" clip-path="url(#clipPath2)" stroke="none"/>
    </g>
    <g text-rendering="geometricPrecision" stroke-miterlimit="1.45" shape-rendering="geometricPrecision" transform="matrix(1,0,0,1,-352,136)" stroke-linecap="butt">
      <rect fill="none" x="948.856" width="117.04" height="46.668" y="259.1397" clip-path="url(#clipPath2)"/>
      <text x="961.3506" xml:space="preserve" y="287.1875" clip-path="url(#clipPath2)" font-family="sans-serif" stroke="none">Queue processor</text>
    </g>
    <g fill="rgb(255,204,0)" text-rendering="geometricPrecision" shape-rendering="geometricPrecision" transform="matrix(1,0,0,1,-352,136)" stroke="rgb(255,204,0)">
      <rect x="948.856" width="117.04" height="46.668" y="376.6633" clip-path="url(#clipPath2)" stroke="none"/>
    </g>
    <g text-rendering="geometricPrecision" stroke-miterlimit="1.45" shape-rendering="geometricPrecision" transform="matrix(1,0,0,1,-352,136)" stroke-linecap="butt">
      <rect fill="none" x="948.856" width="117.04" height="46.668" y="376.6633" clip-path="url(#clipPath2)"/>
      <text x="952.3477" xml:space="preserve" y="404.7112" clip-path="url(#clipPath2)" font-family="sans-serif" stroke="none">Reduction processor</text>
    </g>
    <g fill="rgb(255,204,0)" text-rendering="geometricPrecision" shape-rendering="geometricPrecision" transform="matrix(1,0,0,1,-352,136)" stroke="rgb(255,204,0)">
      <rect x="557.436" width="117.04" height="46.668" y="495.495" clip-path="url(#clipPath2)" stroke="none"/>
    </g>
    <g text-rendering="geometricPrecision" stroke-miterlimit="1.45" shape-rendering="geometricPrecision" transform="matrix(1,0,0,1,-352,136)" stroke-linecap="butt">
      <rect fill="none" x="557.436" width="117.04" height="46.668" y="495.495" clip-path="url(#clipPath2)"/>
      <text x="565.9374" xml:space="preserve" y="523.5428" clip-path="url(#clipPath2)" font-family="sans-serif" stroke="none">Instrument monitor</text>
    </g>
    <g fill="rgb(255,204,0)" text-rendering="geometricPrecision" shape-rendering="geometricPrecision" transform="matrix(1,0,0,1,-352,136)" stroke="rgb(255,204,0)">
      <rect x="1323.2197" width="117.04" height="46.668" y="259.1397" clip-path="url(#clipPath2)" stroke="none"/>
    </g>
    <g text-rendering="geometricPrecision" stroke-miterlimit="1.45" shape-rendering="geometricPrecision" transform="matrix(1,0,0,1,-352,136)" stroke-linecap="butt">
      <rect fill="none" x="1323.2197" width="117.04" height="46.668" y="259.1397" clip-path="url(#clipPath2)"/>
      <text x="1345.3939" xml:space="preserve" y="287.1875" clip-path="url(#clipPath2)" font-family="sans-serif" stroke="none">Script archive</text>
    </g>
    <g fill="rgb(255,204,0)" text-rendering="geometricPrecision" shape-rendering="geometricPrecision" transform="matrix(1,0,0,1,-352,136)" stroke="rgb(255,204,0)">
      <rect x="1323.2197" width="117.04" height="46.668" y="376.6633" clip-path="url(#clipPath2)" stroke="none"/>
    </g>
    <g text-rendering="geometricPrecision" stroke-miterlimit="1.45" shape-rendering="geometricPrecision" transform="matrix(1,0,0,1,-352,136)" stroke-linecap="butt">
      <rect fill="none" x="1323.2197" width="117.04" height="46.668" y="376.6633" clip-path="url(#clipPath2)"/>
      <text x="1340.724" xml:space="preserve" y="404.7112" clip-path="url(#clipPath2)" font-family="sans-serif" stroke="none">Results archive</text>
    </g>
    <g fill="rgb(255,204,0)" text-rendering="geometricPrecision" shape-rendering="geometricPrecision" transform="matrix(1,0,0,1,-352,136)" stroke="rgb(255,204,0)">
      <rect x="1323.2197" width="117.04" height="46.668" y="498.2563" clip-path="url(#clipPath2)" stroke="none"/>
    </g>
    <g text-rendering="geometricPrecision" stroke-miterlimit="1.45" shape-rendering="geometricPrecision" transform="matrix(1,0,0,1,-352,136)" stroke-linecap="butt">
      <rect fill="none" x="1323.2197" width="117.04" height="46.668" y="498.2563" clip-path="url(#clipPath2)"/>
      <text x="1356.392" xml:space="preserve" y="526.3042" clip-path="url(#clipPath2)" font-family="sans-serif" stroke="none">Raw data</text>
    </g>
    <g fill="rgb(255,204,0)" text-rendering="geometricPrecision" shape-rendering="geometricPrecision" transform="matrix(1,0,0,1,-352,136)" stroke="rgb(255,204,0)">
      <rect x="1561.4177" width="117.04" height="46.668" y="371.9827" clip-path="url(#clipPath2)" stroke="none"/>
    </g>
    <g text-rendering="geometricPrecision" stroke-miterlimit="1.45" shape-rendering="geometricPrecision" transform="matrix(1,0,0,1,-352,136)" stroke-linecap="butt">
      <rect fill="none" x="1561.4177" width="117.04" height="46.668" y="371.9827" clip-path="url(#clipPath2)"/>
      <text x="1588.5929" xml:space="preserve" y="400.0305" clip-path="url(#clipPath2)" font-family="sans-serif" stroke="none">Instruments</text>
    </g>
    <g fill="rgb(255,204,0)" text-rendering="geometricPrecision" shape-rendering="geometricPrecision" transform="matrix(1,0,0,1,-352,136)" stroke="rgb(255,204,0)">
      <rect x="1561.4177" width="117.04" height="46.668" y="260.3147" clip-path="url(#clipPath2)" stroke="none"/>
    </g>
    <g text-rendering="geometricPrecision" stroke-miterlimit="1.45" shape-rendering="geometricPrecision" transform="matrix(1,0,0,1,-352,136)" stroke-linecap="butt">
      <rect fill="none" x="1561.4177" width="117.04" height="46.668" y="260.3147" clip-path="url(#clipPath2)"/>
      <text x="1570.5812" xml:space="preserve" y="288.3625" clip-path="url(#clipPath2)" font-family="sans-serif" stroke="none">Beamline software</text>
      <rect x="936.626" y="-120.0887" clip-path="url(#clipPath2)" fill="none" width="535.05" stroke-dasharray="6,2" rx="4" ry="4" height="126"/>
      <text x="1183.3026" font-size="15px" y="-99.0081" clip-path="url(#clipPath2)" font-family="sans-serif" stroke="none" font-weight="bold" xml:space="preserve">Users</text>
    </g>
    <g fill="rgb(255,204,0)" text-rendering="geometricPrecision" shape-rendering="geometricPrecision" transform="matrix(1,0,0,1,-352,136)" stroke="rgb(255,204,0)">
      <rect x="977.2523" width="117.04" height="46.668" y="-78.2207" clip-path="url(#clipPath2)" stroke="none"/>
    </g>
    <g text-rendering="geometricPrecision" stroke-miterlimit="1.45" shape-rendering="geometricPrecision" transform="matrix(1,0,0,1,-352,136)" stroke-linecap="butt">
      <rect fill="none" x="977.2523" width="117.04" height="46.668" y="-78.2207" clip-path="url(#clipPath2)"/>
      <text x="1000.4286" xml:space="preserve" y="-50.1728" clip-path="url(#clipPath2)" font-family="sans-serif" stroke="none">Web browser</text>
    </g>
    <g fill="rgb(255,204,0)" text-rendering="geometricPrecision" shape-rendering="geometricPrecision" transform="matrix(1,0,0,1,-352,136)" stroke="rgb(255,204,0)">
      <rect x="1143.986" width="117.04" height="46.668" y="-78.2207" clip-path="url(#clipPath2)" stroke="none"/>
    </g>
    <g text-rendering="geometricPrecision" stroke-miterlimit="1.45" shape-rendering="geometricPrecision" transform="matrix(1,0,0,1,-352,136)" stroke-linecap="butt">
      <rect fill="none" x="1143.986" width="117.04" height="46.668" y="-78.2207" clip-path="url(#clipPath2)"/>
      <text x="1191.174" xml:space="preserve" y="-50.1728" clip-path="url(#clipPath2)" font-family="sans-serif" stroke="none">FTP</text>
    </g>
    <g fill="rgb(255,204,0)" text-rendering="geometricPrecision" shape-rendering="geometricPrecision" transform="matrix(1,0,0,1,-352,136)" stroke="rgb(255,204,0)">
      <rect x="1310.7197" width="142.04" height="46.668" y="-78.2207" clip-path="url(#clipPath2)" stroke="none"/>
    </g>
    <g text-rendering="geometricPrecision" stroke-miterlimit="1.45" shape-rendering="geometricPrecision" transform="matrix(1,0,0,1,-352,136)" stroke-linecap="butt">
      <rect fill="none" x="1310.7197" width="142.04" height="46.668" y="-78.2207" clip-path="url(#clipPath2)"/>
      <text x="1322.7123" xml:space="preserve" y="-50.1728" clip-path="url(#clipPath2)" font-family="sans-serif" stroke="none">Operating instruments</text>
      <rect x="463.056" y="-117.8867" clip-path="url(#clipPath2)" fill="none" width="339.85" stroke-dasharray="6,2" rx="4" ry="4" height="126"/>
      <text x="573.3619" font-size="15px" y="-96.8061" clip-path="url(#clipPath2)" font-family="sans-serif" stroke="none" font-weight="bold" xml:space="preserve">Remote services</text>
    </g>
    <g fill="rgb(255,204,0)" text-rendering="geometricPrecision" shape-rendering="geometricPrecision" transform="matrix(1,0,0,1,-352,136)" stroke="rgb(255,204,0)">
      <rect x="504.467" width="117.04" height="46.668" y="-78.2207" clip-path="url(#clipPath2)" stroke="none"/>
    </g>
    <g text-rendering="geometricPrecision" stroke-miterlimit="1.45" shape-rendering="geometricPrecision" transform="matrix(1,0,0,1,-352,136)" stroke-linecap="butt">
      <rect fill="none" x="504.467" width="117.04" height="46.668" y="-78.2207" clip-path="url(#clipPath2)"/>
      <text x="549.3201" xml:space="preserve" y="-50.1728" clip-path="url(#clipPath2)" font-family="sans-serif" stroke="none">ICAT</text>
    </g>
    <g fill="rgb(255,204,0)" text-rendering="geometricPrecision" shape-rendering="geometricPrecision" transform="matrix(1,0,0,1,-352,136)" stroke="rgb(255,204,0)">
      <rect x="651.507" width="117.04" height="46.668" y="-78.2207" clip-path="url(#clipPath2)" stroke="none"/>
    </g>
    <g text-rendering="geometricPrecision" stroke-miterlimit="1.45" shape-rendering="geometricPrecision" transform="matrix(1,0,0,1,-352,136)" stroke-linecap="butt">
      <rect fill="none" x="651.507" width="117.04" height="46.668" y="-78.2207" clip-path="url(#clipPath2)"/>
      <text x="680.0212" xml:space="preserve" y="-50.1728" clip-path="url(#clipPath2)" font-family="sans-serif" stroke="none">User Office</text>
      <path fill="none" d="M607.0136 377.3193 L607.0136 312.4617" clip-path="url(#clipPath2)"/>
      <path d="M607.0136 304.4617 L602.0136 316.4617 L607.0136 313.4617 L612.0136 316.4617 Z" clip-path="url(#clipPath2)" stroke="none"/>
      <text x="477.8655" xml:space="preserve" y="346.6223" clip-path="url(#clipPath2)" font-family="sans-serif" stroke="none">Status updates for runs</text>
      <path fill="none" d="M615.956 369.3173 L615.956 304.4997" clip-path="url(#clipPath2)"/>
      <path d="M615.956 377.3173 L620.956 365.3173 L615.956 368.3173 L610.956 365.3173 Z" clip-path="url(#clipPath2)" stroke="none"/>
      <text x="621.5196" xml:space="preserve" y="345.6223" clip-path="url(#clipPath2)" font-family="sans-serif" stroke="none">Start processing runs</text>
      <path fill="none" d="M674.476 382.4267 L941.1939 302.3448" clip-path="url(#clipPath2)"/>
      <path d="M948.856 300.0443 L935.925 298.7062 L940.2361 302.6324 L938.8007 308.2838 Z" clip-path="url(#clipPath2)" stroke="none"/>
      <text x="784.5338" xml:space="preserve" y="313.1609" clip-path="url(#clipPath2)" font-family="sans-serif" stroke="none">Process run</text>
      <path fill="none" d="M1007.376 305.8076 L1007.376 368.6633" clip-path="url(#clipPath2)"/>
      <path d="M1007.376 376.6633 L1012.376 364.6633 L1007.376 367.6633 L1002.376 364.6633 Z" clip-path="url(#clipPath2)" stroke="none"/>
      <text x="1011.3633" xml:space="preserve" y="342.9494" clip-path="url(#clipPath2)" font-family="sans-serif" stroke="none">Process run</text>
      <path fill="none" d="M948.856 399.9973 L682.476 399.9973" clip-path="url(#clipPath2)"/>
      <path d="M674.476 399.9973 L686.476 404.9973 L683.476 399.9973 L686.476 394.9973 Z" clip-path="url(#clipPath2)" stroke="none"/>
      <text x="815.6353" xml:space="preserve" y="434.7112" clip-path="url(#clipPath2)" font-family="sans-serif" stroke="none">Run status</text>
      <path fill="none" d="M615.956 495.495 L615.956 430.6773" clip-path="url(#clipPath2)"/>
      <path d="M615.956 422.6773 L610.956 434.6773 L615.956 431.6773 L620.956 434.6773 Z" clip-path="url(#clipPath2)" stroke="none"/>
      <text x="623.6142" xml:space="preserve" y="463.8" clip-path="url(#clipPath2)" font-family="sans-serif" stroke="none">New run</text>
      <path fill="none" d="M1323.2196 282.4737 L1248.9271 282.4737 L1248.9271 150.6896 L696.9534 150.6896 L696.9534 281.8197 L682.476 281.8197" clip-path="url(#clipPath2)"/>
      <path d="M674.476 281.8197 L686.476 286.8197 L683.476 281.8197 L686.476 276.8197 Z" clip-path="url(#clipPath2)" stroke="none"/>
      <text x="981.8489" xml:space="preserve" y="140.9173" clip-path="url(#clipPath2)" font-family="sans-serif" stroke="none">Reduction scripts</text>
      <path fill="none" d="M1065.896 282.4737 L1193.0187 282.4737 L1193.0187 399.9973 L1315.2196 399.9973" clip-path="url(#clipPath2)"/>
      <path d="M1323.2196 399.9973 L1311.2196 394.9973 L1314.2196 399.9973 L1311.2196 404.9973 Z" clip-path="url(#clipPath2)" stroke="none"/>
      <text x="1199.7705" xml:space="preserve" y="392.3079" clip-path="url(#clipPath2)" font-family="sans-serif" stroke="none">Reduced data</text>
      <path fill="none" d="M1323.2374 504.6716 L1173.5187 504.6716 L1173.5187 298.1896 L1073.9264 298.1896" clip-path="url(#clipPath2)"/>
      <path d="M1065.9264 298.1896 L1077.9264 303.1896 L1074.9264 298.1896 L1077.9264 293.1896 Z" clip-path="url(#clipPath2)" stroke="none"/>
      <text x="1189.2852" xml:space="preserve" y="493.5579" clip-path="url(#clipPath2)" font-family="sans-serif" stroke="none">Raw data</text>
      <path fill="none" d="M1323.2196 521.3793 L682.476 519.0688" clip-path="url(#clipPath2)"/>
      <path d="M674.476 519.04 L686.4579 524.0833 L683.476 519.0724 L686.494 514.0833 Z" clip-path="url(#clipPath2)" stroke="none"/>
      <text x="981.8299" xml:space="preserve" y="513.0341" clip-path="url(#clipPath2)" font-family="sans-serif" stroke="none">New runs</text>
      <path fill="none" d="M1602.1989 314.9672 L1602.1989 363.952" clip-path="url(#clipPath2)"/>
      <path d="M1602.1989 306.9672 L1597.1989 318.9672 L1602.1989 315.9672 L1607.1989 318.9672 Z" clip-path="url(#clipPath2)" stroke="none"/>
      <path d="M1602.1989 371.952 L1607.1989 359.952 L1602.1989 362.952 L1597.1989 359.952 Z" clip-path="url(#clipPath2)" stroke="none"/>
      <text x="1615.066" xml:space="preserve" y="347.3079" clip-path="url(#clipPath2)" font-family="sans-serif" stroke="none">Control &amp; data</text>
      <path fill="none" d="M1561.441 300.0941 L1523.1875 300.0941 L1523.1875 525.0941 L1448.2577 525.0941" clip-path="url(#clipPath2)"/>
      <path d="M1440.2577 525.0941 L1452.2577 530.0941 L1449.2577 525.0941 L1452.2577 520.0941 Z" clip-path="url(#clipPath2)" stroke="none"/>
      <text x="1540.6484" xml:space="preserve" y="521.7139" clip-path="url(#clipPath2)" font-family="sans-serif" stroke="none">Run data</text>
      <path fill="none" d="M1035.7723 -31.5527 L1035.7723 91.7816 L658.5187 91.7816 L659.1401 251.0943" clip-path="url(#clipPath2)"/>
      <path d="M659.1713 259.0942 L664.1245 247.0748 L659.1362 250.0943 L654.1245 247.1138 Z" clip-path="url(#clipPath2)" stroke="none"/>
      <text x="882.1671" xml:space="preserve" y="77.7454" clip-path="url(#clipPath2)" font-family="sans-serif" stroke="none">View &amp; modify runs</text>
      <path fill="none" d="M1247.2687 -23.5369 L1247.2687 29.2816 L1497.1028 29.2816 L1497.1028 399.9973 L1440.2596 399.9973" clip-path="url(#clipPath2)"/>
      <path d="M1247.2687 -31.5369 L1242.2687 -19.5369 L1247.2687 -22.5369 L1252.2687 -19.5369 Z" clip-path="url(#clipPath2)" stroke="none"/>
      <text x="1409.7705" xml:space="preserve" y="53.5579" clip-path="url(#clipPath2)" font-family="sans-serif" stroke="none">Reduced data</text>
      <path fill="none" d="M1173.5187 -31.5522 L1173.5187 73.0316 L1291.3715 73.0316 L1292.1028 264.2816 L1315.2454 264.2816" clip-path="url(#clipPath2)"/>
      <path d="M1323.2454 264.2816 L1311.2454 259.2816 L1314.2454 264.2816 L1311.2454 269.2816 Z" clip-path="url(#clipPath2)" stroke="none"/>
      <text x="1182.3633" xml:space="preserve" y="96.0579" clip-path="url(#clipPath2)" font-family="sans-serif" stroke="none">Reduction scripts</text>
      <path fill="none" d="M1452.7596 -54.8867 L1522.25 -54.8867 L1522.25 271.3987 L1553.4448 271.3987" clip-path="url(#clipPath2)"/>
      <path d="M1561.4448 271.3987 L1549.4448 266.3987 L1552.4448 271.3987 L1549.4448 276.3987 Z" clip-path="url(#clipPath2)" stroke="none"/>
      <text x="1537.6982" xml:space="preserve" y="-35.1921" clip-path="url(#clipPath2)" font-family="sans-serif" stroke="none">Perform experiments</text>
      <path fill="none" d="M533.6094 -31.5527 L533.6094 289.4847 L549.4277 289.4847" clip-path="url(#clipPath2)"/>
      <path d="M557.4277 289.4847 L545.4277 284.4847 L548.4277 289.4847 L545.4277 294.4847 Z" clip-path="url(#clipPath2)" stroke="none"/>
      <text x="369.9121" xml:space="preserve" y="98.3552" clip-path="url(#clipPath2)" font-family="sans-serif" stroke="none">User permissions &amp; metadata</text>
      <path fill="none" d="M747.1328 -31.5484 L747.1328 40.7347 L574.051 40.7347 L574.051 251.1281" clip-path="url(#clipPath2)"/>
      <path d="M574.051 259.1281 L579.051 247.1281 L574.051 250.1281 L569.051 247.1281 Z" clip-path="url(#clipPath2)" stroke="none"/>
      <text x="604.1855" xml:space="preserve" y="33.5579" clip-path="url(#clipPath2)" font-family="sans-serif" stroke="none">User authentication</text>
    </g>
  </g>
</svg>
